<svg width="40" height="40" viewBox="0 0 40 40" fill="none" xmlns="http://www.w3.org/2000/svg">
<rect width="40" height="40" rx="20" fill="white" fill-opacity="0.05"/>
<path d="M16.4 14.5H23.6C27 14.5 27.34 16.09 27.57 18.03L28.47 25.53C28.76 27.99 28 30 24.5 30H15.51C12 30 11.24 27.99 11.54 25.53L12.44 18.03C12.66 16.09 13 14.5 16.4 14.5Z" stroke="white" stroke-width="1.5" stroke-linecap="round" stroke-linejoin="round"/>
<path d="M16 16V12.5C16 11 17 10 18.5 10H21.5C23 10 24 11 24 12.5V16" stroke="white" stroke-width="1.5" stroke-linecap="round" stroke-linejoin="round"/>
<path d="M28.41 25.03H16" stroke="white" stroke-width="1.5" stroke-linecap="round" stroke-linejoin="round"/>
<rect x="22" y="12" width="8" height="8" rx="4" fill="#F13658"/>
<rect x="22" y="12" width="8" height="8" rx="4" stroke="white"/>
</svg>
