<svg width="40" height="40" viewBox="0 0 40 40" fill="none" xmlns="http://www.w3.org/2000/svg">
<g clip-path="url(#clip0_131_588)">
<path d="M40 20C40 8.9543 31.0457 0 20 0C8.9543 0 0 8.9543 0 20C0 31.0457 8.9543 40 20 40C31.0457 40 40 31.0457 40 20Z" fill="white" fill-opacity="0.05"/>
<path d="M20.62 28.81C20.28 28.93 19.72 28.93 19.38 28.81C16.48 27.82 10 23.69 10 16.69C10 13.6 12.49 11.1 15.56 11.1C17.38 11.1 18.99 11.98 20 13.34C21.01 11.98 22.63 11.1 24.44 11.1C27.51 11.1 30 13.6 30 16.69C30 23.69 23.52 27.82 20.62 28.81Z" fill="white"/>
<circle cx="20" cy="36" r="2" fill="white"/>
</g>
<defs>
<clipPath id="clip0_131_588">
<rect width="40" height="40" fill="white"/>
</clipPath>
</defs>
</svg>
