<svg width="20" height="20" viewBox="0 0 20 20" fill="none" xmlns="http://www.w3.org/2000/svg">
<path d="M11.3622 5.03353C10.7903 5.11685 10.2677 5.30622 9.39659 5.74934L8.79819 6.05233H8.46111C8.27553 6.05233 7.88922 6.01825 7.60138 5.97659C6.96889 5.8819 6.29474 5.87433 5.98418 5.95765C4.90099 6.2417 4.29501 7.40442 4.13973 9.49884C4.12079 9.7791 4.09428 10.1313 4.08292 10.279L4.06398 10.5517L3.82916 10.5972C3.2194 10.7108 2.26119 11.0479 1.8105 11.2978C1.32193 11.5705 1 11.9796 1 12.3166C1.00379 12.9832 1.91276 13.574 3.58677 14.002C4.11322 14.1384 5.41607 14.358 6.18869 14.4376C9.71095 14.8125 13.8619 14.5436 16.2063 13.7937C16.7062 13.6309 17.3917 13.2786 17.6417 13.0552C18.0318 12.703 18.1341 12.3432 17.9447 11.9682C17.8046 11.6841 17.5053 11.4304 17.0433 11.2069C16.6002 10.9873 15.7897 10.7108 15.3087 10.6123C14.9337 10.5328 14.9375 10.5404 14.9375 10.0707C14.9375 9.34356 14.7103 7.99525 14.4641 7.24157C14.3467 6.88934 13.9982 6.21898 13.7862 5.95007C13.2067 5.21154 12.3545 4.88961 11.3622 5.03353ZM12.3129 5.65087C12.6613 5.74556 12.8658 5.86675 13.1575 6.16217C13.5968 6.60529 13.896 7.24157 14.1043 8.18083C14.2331 8.74515 14.3353 9.66927 14.358 10.476C14.3808 11.241 14.3808 11.241 14.2937 11.3357C14.199 11.438 13.7937 11.6046 13.3468 11.7258C11.7826 12.1538 9.22238 12.275 7.21128 12.0137C6.00311 11.8584 5.0184 11.5895 4.76086 11.3471C4.67753 11.2675 4.67375 11.241 4.67375 10.6388C4.67753 9.40415 4.84418 8.23007 5.11687 7.59C5.32896 7.07871 5.57514 6.79466 5.96145 6.60908C6.20006 6.49167 6.21899 6.48788 6.69999 6.49167C6.97268 6.49546 7.35899 6.52575 7.5673 6.55984C8.13161 6.65453 8.57095 6.67725 8.84364 6.62423C8.99892 6.59393 9.3057 6.46137 9.74503 6.2417C10.5025 5.85918 10.6161 5.81373 11.0933 5.68875C11.4948 5.58649 12.0137 5.57134 12.3129 5.65087ZM4.10564 11.3433C4.24956 11.9303 5.30245 12.3659 7.15447 12.6007C9.13148 12.8544 11.1198 12.7938 12.9605 12.4303C14.0929 12.2068 14.8201 11.8091 14.9413 11.3433C14.9754 11.2297 15.0133 11.1653 15.0511 11.1653C15.0814 11.1653 15.2708 11.2069 15.4677 11.26C16.6267 11.5667 17.4372 12.0137 17.4372 12.3394C17.4372 12.7863 16.1305 13.3203 14.2558 13.646C12.7749 13.8998 11.5781 13.9869 9.52158 13.9869C7.86271 13.9869 7.09766 13.949 5.96145 13.8127C3.44285 13.5134 1.60598 12.8885 1.60598 12.3318C1.60598 12.0137 2.30664 11.6198 3.44285 11.2978C4.05262 11.1274 4.04883 11.1236 4.10564 11.3433Z" fill="#111111"/>
</svg>
