<svg width="40" height="40" viewBox="0 0 40 40" fill="none" xmlns="http://www.w3.org/2000/svg">
<g clip-path="url(#clip0_131_577)">
<path d="M40 20C40 8.9543 31.0457 0 20 0C8.9543 0 0 8.9543 0 20C0 31.0457 8.9543 40 20 40C31.0457 40 40 31.0457 40 20Z" fill="white" fill-opacity="0.05"/>
<path d="M20.16 18.87C20.06 18.86 19.94 18.86 19.83 18.87C17.45 18.79 15.56 16.84 15.56 14.44C15.56 11.99 17.54 10 20 10C22.45 10 24.44 11.99 24.44 14.44C24.43 16.84 22.54 18.79 20.16 18.87Z" fill="white"/>
<path d="M15.16 22.56C12.74 24.18 12.74 26.82 15.16 28.43C17.91 30.27 22.42 30.27 25.17 28.43C27.59 26.81 27.59 24.17 25.17 22.56C22.43 20.73 17.92 20.73 15.16 22.56Z" fill="white"/>
<circle cx="20" cy="36" r="2" fill="white"/>
</g>
<defs>
<clipPath id="clip0_131_577">
<rect width="40" height="40" fill="white"/>
</clipPath>
</defs>
</svg>
