<svg width="20" height="20" viewBox="0 0 20 20" fill="none" xmlns="http://www.w3.org/2000/svg">
<g clip-path="url(#clip0_132_607)">
<path d="M8.06819 1.01692C8.06819 1.02734 8.05387 1.04166 8.03564 1.04947C7.9471 1.08984 7.68147 1.38411 7.54345 1.59374C7.48095 1.6901 7.34293 1.96354 7.30647 2.0677C7.21272 2.33203 7.17236 2.49869 7.1372 2.75781C7.12548 2.84765 7.11506 2.92057 7.11376 2.92057C7.11246 2.92187 7.08251 2.944 7.04605 2.97265C6.82991 3.14322 6.70881 3.30078 6.60465 3.54296C6.53954 3.694 6.54085 3.73697 6.61637 4.03385C6.65022 4.16666 6.68147 4.29557 6.68798 4.32031C6.6984 4.36718 6.71793 4.44791 6.74657 4.56119C6.78043 4.694 6.79475 4.75911 6.81168 4.83463C6.83381 4.93098 6.91585 5.32161 6.94319 5.45312C6.95491 5.5065 6.97184 5.58463 6.98225 5.62499C6.99267 5.66666 7.00048 5.71484 7.00048 5.73307C7.00048 5.7513 7.00829 5.79947 7.01871 5.84114C7.04085 5.93098 7.06298 6.04557 7.07861 6.14973C7.14762 6.61588 7.14631 6.58854 7.15282 7.30208C7.15803 7.8802 7.15673 7.99348 7.14111 8.03124C7.13069 8.05598 7.06559 8.17057 6.99788 8.28515C6.93017 8.39973 6.84684 8.54036 6.81298 8.59765C6.77913 8.65494 6.74657 8.71093 6.74006 8.72135C6.73355 8.73176 6.68538 8.81119 6.6346 8.89713C6.58381 8.98307 6.52392 9.08333 6.50178 9.11848C6.47835 9.15494 6.45361 9.19531 6.44449 9.20963C6.38199 9.31249 6.15934 9.66536 6.02392 9.87369C5.97053 9.95703 5.92105 10.0352 5.91324 10.0469C5.8898 10.0846 5.40543 10.8086 5.34423 10.8958C5.31168 10.9427 5.25178 11.0299 5.21012 11.0911C5.10986 11.237 4.71793 11.7865 4.70751 11.7943C4.70361 11.7982 4.64371 11.8802 4.5747 11.9766C4.44189 12.1615 4.09814 12.6107 3.89762 12.8607C3.83121 12.9414 3.75439 13.0391 3.72574 13.0755C3.59944 13.2396 3.04996 13.8893 2.91845 14.0338C2.8885 14.0664 2.80908 14.1536 2.74137 14.2292C2.60074 14.3854 2.41324 14.5846 2.19449 14.8086C2.11116 14.8945 2.03303 14.9831 2.02131 15.0065C1.99006 15.069 1.99397 15.1979 2.02783 15.2539C2.05647 15.2995 2.17496 15.401 2.3247 15.5078C2.6372 15.7305 3.14892 16.056 3.42626 16.2083C3.46923 16.2318 3.52783 16.2643 3.55647 16.2799C3.58512 16.2956 3.65283 16.3333 3.70881 16.3633C3.7635 16.3932 3.81168 16.4258 3.81559 16.4362C3.81949 16.4466 3.81428 16.4753 3.80387 16.5C3.76611 16.5898 3.78564 16.6966 3.85204 16.7669C3.8872 16.8047 3.97965 16.8685 4.201 17.0091C4.25178 17.0417 4.42756 17.1419 4.53954 17.2018C4.57861 17.2227 4.61767 17.2448 4.62418 17.25C4.63199 17.2552 4.72574 17.3034 4.83251 17.3581C5.29736 17.5911 5.3221 17.599 5.43277 17.5508C5.46663 17.5352 5.50699 17.513 5.52001 17.5C5.59814 17.4297 5.61897 17.276 5.56168 17.1862C5.52652 17.1289 5.47053 17.0833 5.39241 17.0482C5.19059 16.957 4.78434 16.7448 4.58902 16.6289C4.49267 16.5716 4.4484 16.5391 4.4484 16.5221C4.4484 16.5091 4.50569 16.4232 4.5747 16.3307C4.68538 16.1849 4.80517 16.0143 5.03303 15.6875C5.11897 15.5625 5.40803 15.1263 5.49788 14.987C5.59163 14.8398 5.59032 14.8411 5.71142 14.6458C5.7648 14.5586 5.81949 14.4727 5.83121 14.4531C5.84293 14.4336 5.86116 14.4049 5.87027 14.3893C5.87939 14.3737 5.94319 14.2682 6.0109 14.1549C6.07861 14.0417 6.14111 13.9375 6.15022 13.9232C6.15934 13.9088 6.17105 13.888 6.17626 13.8776C6.18147 13.8672 6.21923 13.8008 6.2609 13.7305C6.30256 13.6615 6.33642 13.6003 6.33642 13.5977C6.33642 13.5937 6.36246 13.5482 6.39371 13.4961C6.46532 13.3776 6.53694 13.25 6.68668 12.9753C6.70621 12.9388 6.74137 12.875 6.7622 12.8359C6.78434 12.7969 6.8221 12.7266 6.84684 12.6797C6.87157 12.6328 6.92105 12.5417 6.95621 12.4779C7.1997 12.0247 7.78824 10.8437 7.97704 10.4271C8.0773 10.2057 8.11897 10.1159 8.15282 10.043C8.23486 9.86848 8.25048 9.82291 8.25048 9.76041C8.25048 9.68619 8.21532 9.60937 8.16324 9.5677C8.0109 9.44791 7.83381 9.49479 7.74527 9.67838C7.72184 9.72395 7.70361 9.76562 7.70361 9.76953C7.70361 9.77213 7.67626 9.83333 7.64371 9.90234C7.61116 9.97265 7.55777 10.0846 7.52652 10.151C7.49527 10.2174 7.46923 10.2747 7.46923 10.2786C7.46923 10.2812 7.41715 10.3906 7.35465 10.5208C7.29085 10.6523 7.19319 10.8555 7.1372 10.974C7.07991 11.0924 7.03043 11.194 7.02522 11.2018C7.02001 11.2083 6.951 11.3437 6.87288 11.5013C6.74006 11.763 6.62678 11.9818 6.47053 12.276C6.43798 12.3372 6.3846 12.4362 6.35204 12.4974C6.31949 12.5586 6.25829 12.6693 6.21663 12.7435C6.17496 12.8177 6.14111 12.8802 6.14111 12.8815C6.14111 12.8841 6.11506 12.931 6.08251 12.9844C6.04996 13.0391 6.02392 13.0872 6.02392 13.0898C6.02392 13.0924 5.99788 13.1406 5.96532 13.1953C5.93277 13.2487 5.90673 13.2956 5.90673 13.2982C5.90673 13.2995 5.85465 13.3893 5.79215 13.4948C5.72835 13.6016 5.67366 13.6979 5.66845 13.7083C5.66324 13.7187 5.64762 13.7448 5.63329 13.7669C5.61897 13.7878 5.60204 13.8177 5.59553 13.832C5.58902 13.8463 5.55517 13.9036 5.52001 13.9596C5.48616 14.0143 5.39241 14.1667 5.31168 14.2982C5.02392 14.7669 4.6346 15.3529 4.30647 15.8112C4.23225 15.9154 4.16324 16 4.15413 16C4.1359 16 4.02392 15.9414 3.66715 15.7435C3.64892 15.7331 3.61767 15.7135 3.59553 15.7005C3.5747 15.6862 3.53954 15.6654 3.51741 15.6536C3.30256 15.5352 2.72835 15.1628 2.68277 15.112C2.66064 15.0885 2.66194 15.0859 2.70491 15.0391C2.75699 14.9831 2.90673 14.8216 3.03434 14.6862C3.08381 14.6328 3.16324 14.5456 3.21012 14.4909C3.25699 14.4362 3.31689 14.3685 3.34293 14.3398C3.4484 14.2227 3.60204 14.0456 3.6997 13.9297C3.75699 13.862 3.84423 13.7565 3.89501 13.6953C4.06168 13.4961 4.41454 13.0547 4.56559 12.8555C4.64762 12.7474 4.71793 12.6575 4.72184 12.6536C4.72704 12.6497 4.7622 12.6029 4.80126 12.5495C4.84163 12.4961 4.94059 12.3607 5.02262 12.25C5.53043 11.5651 6.23355 10.5338 6.65673 9.85676C6.68407 9.81249 6.75309 9.70312 6.80777 9.61588C6.93407 9.41406 7.37809 8.67578 7.46923 8.51432C7.50829 8.44661 7.54996 8.3802 7.56298 8.36718C7.58512 8.34505 7.67756 8.34374 9.87157 8.34374C12.0565 8.34374 12.158 8.34505 12.1802 8.36718C12.1932 8.3802 12.2257 8.43098 12.2531 8.48176C12.3195 8.60025 12.852 9.48567 12.9575 9.65234C13.0578 9.80989 13.1867 10.0156 13.2049 10.0469C13.2192 10.0729 13.2479 10.1159 13.5799 10.6159C13.7127 10.8164 13.8612 11.0391 13.9106 11.1107C14.0708 11.3424 14.1437 11.4466 14.2349 11.5768C14.2843 11.6458 14.3507 11.7396 14.382 11.7852C14.4966 11.9505 14.7752 12.3281 15.0604 12.7044C15.3833 13.1328 15.8989 13.7682 16.2453 14.1641C16.3416 14.2747 16.4276 14.3711 16.4354 14.3789C16.4419 14.3854 16.4862 14.4362 16.5317 14.4896C16.6112 14.582 16.6515 14.6263 16.9093 14.8997C17.089 15.0898 17.0851 15.0846 17.0643 15.1094C17.0265 15.1562 16.3546 15.5898 16.158 15.6953C16.1385 15.7057 16.1046 15.7266 16.0825 15.7396C16.0617 15.7526 16.0148 15.7799 15.9783 15.7982C15.9432 15.8177 15.8781 15.8529 15.8351 15.8763C15.6424 15.9805 15.6046 16 15.589 16C15.5799 16 15.5382 15.9518 15.4966 15.8932C15.4549 15.8333 15.3846 15.7357 15.3403 15.6745C15.2375 15.5338 14.9783 15.1549 14.8468 14.9518C14.7908 14.8659 14.7336 14.7799 14.7205 14.7604C14.7075 14.7409 14.6958 14.7227 14.6958 14.7187C14.6958 14.7148 14.6711 14.6758 14.6398 14.6302C14.6086 14.5846 14.5434 14.4818 14.4927 14.401C14.4432 14.3203 14.3924 14.2383 14.3807 14.2187C14.369 14.1992 14.3507 14.1706 14.3416 14.1549C14.3325 14.1393 14.2804 14.0534 14.2283 13.9661C14.175 13.8776 14.1229 13.7917 14.1125 13.7734C14.1033 13.7552 14.0838 13.7227 14.0708 13.7018C14.0565 13.6797 14.0408 13.6536 14.0356 13.6432C14.0304 13.6328 13.9836 13.5521 13.9315 13.4635C13.8794 13.375 13.8364 13.3008 13.8364 13.2969C13.8364 13.2943 13.8143 13.2552 13.7869 13.2109C13.7596 13.1654 13.7088 13.0755 13.6737 13.0117C13.6372 12.9466 13.6033 12.8841 13.5955 12.8724C13.589 12.8607 13.563 12.8138 13.5382 12.7682C13.5148 12.7227 13.4849 12.668 13.4718 12.6471C13.4601 12.625 13.4184 12.5508 13.382 12.4792C13.3442 12.4088 13.3039 12.3333 13.2908 12.3099C13.2674 12.2682 13.158 12.0599 13.0122 11.7812C12.8911 11.5469 12.5968 10.9609 12.5369 10.8307C12.5083 10.7695 12.4315 10.6107 12.3664 10.4753C12.3013 10.3411 12.2479 10.2292 12.2479 10.2253C12.2479 10.2227 12.2205 10.1628 12.188 10.0924C12.1554 10.0221 12.1151 9.93489 12.0981 9.89973C11.9836 9.64973 11.9588 9.60416 11.9263 9.57291C11.7609 9.42057 11.4927 9.53645 11.4927 9.76041C11.4927 9.80729 11.507 9.85807 11.55 9.95312C11.6945 10.2799 11.7791 10.4622 11.8989 10.7135C12.0382 11.0026 12.3911 11.724 12.4028 11.7422C12.4093 11.7526 12.4627 11.8555 12.5213 11.97C12.5812 12.0846 12.658 12.2344 12.6945 12.3021C12.7296 12.3698 12.7843 12.4727 12.8143 12.5299C12.8781 12.651 12.9367 12.7565 12.9744 12.8242C12.9888 12.8516 13.0317 12.9297 13.0695 13C13.1073 13.0716 13.1632 13.1719 13.1945 13.224C13.2257 13.2773 13.2505 13.3229 13.2505 13.3255C13.2505 13.3281 13.2765 13.3737 13.3065 13.4258C13.3377 13.4766 13.3898 13.5664 13.4211 13.6237C13.4523 13.681 13.4849 13.7396 13.494 13.7539C13.5031 13.7682 13.5161 13.7917 13.5239 13.806C13.5317 13.8203 13.5487 13.849 13.563 13.8711C13.5773 13.8919 13.5994 13.931 13.6138 13.957C13.6854 14.0872 14.1177 14.793 14.2726 15.0299C14.3833 15.2005 14.632 15.5755 14.7062 15.681C14.9692 16.0612 15.0304 16.1484 15.1698 16.3333C15.2466 16.4349 15.2948 16.5104 15.2921 16.5247C15.2895 16.5417 15.2323 16.5833 15.119 16.6484C14.9445 16.7487 14.4783 16.9883 14.3052 17.0677C14.0955 17.1615 14.0461 17.1836 13.895 17.2474C13.8091 17.2825 13.7127 17.3216 13.6802 17.3333C13.6125 17.3568 13.5474 17.3802 13.4458 17.4193C13.3546 17.4544 12.8911 17.6055 12.7882 17.6341C12.7453 17.6471 12.6841 17.6641 12.6515 17.6732C12.5578 17.7005 12.4562 17.7279 12.3651 17.7513C12.3182 17.763 12.2635 17.7773 12.2414 17.7838C12.1476 17.8125 11.5226 17.931 11.3104 17.9609C10.6346 18.056 10.1424 18.0833 9.51611 18.0586C9.28954 18.0495 9.05907 18.0365 9.00569 18.0299C8.9523 18.0221 8.85204 18.0117 8.78434 18.0052C8.6346 17.9909 8.25309 17.9362 8.06168 17.901C7.77262 17.8477 7.59293 17.8086 7.40413 17.7565C7.37157 17.7474 7.3221 17.7357 7.29345 17.7305C7.2648 17.7253 7.21272 17.7122 7.17626 17.7005C7.14111 17.6901 7.05517 17.6667 6.98746 17.6471C6.83642 17.6042 6.51741 17.5026 6.4484 17.474C6.41845 17.4609 6.35986 17.4531 6.30517 17.4531C6.22314 17.4531 6.20621 17.457 6.16324 17.4896C6.0773 17.556 6.05647 17.5963 6.05647 17.7018C6.05647 17.7838 6.06038 17.8008 6.09553 17.8503C6.14111 17.9141 6.23225 17.9635 6.38199 18.0052C6.41975 18.0156 6.46663 18.0312 6.55777 18.0651C6.64631 18.0963 7.03173 18.2044 7.24788 18.2578C7.28694 18.2682 7.34553 18.2825 7.37809 18.2917C7.41064 18.2995 7.46012 18.3112 7.48876 18.3164C7.51741 18.3216 7.56428 18.3333 7.59293 18.3411C7.77522 18.3919 8.37027 18.487 8.79085 18.5312C9.2635 18.582 9.52392 18.595 9.98876 18.5885C10.4276 18.582 10.5382 18.5755 10.9653 18.5312C11.3625 18.4896 11.813 18.4193 12.0916 18.3568C12.1593 18.3411 12.2427 18.3229 12.2765 18.3177C12.3117 18.3112 12.3442 18.3034 12.3507 18.2982C12.3573 18.2943 12.3885 18.2865 12.4198 18.2799C12.5695 18.25 13.0929 18.1042 13.1854 18.0664C13.2036 18.0599 13.2362 18.0495 13.257 18.0443C13.2961 18.0338 13.3468 18.0169 13.4328 17.9844C13.4575 17.9753 13.5317 17.9492 13.5955 17.9271C14.145 17.7344 14.8781 17.3984 15.3599 17.1159C15.7309 16.8984 15.8533 16.8151 15.9132 16.7357C15.9562 16.6797 15.9679 16.5859 15.9419 16.5091C15.9211 16.4518 15.9302 16.4036 15.9601 16.4036C15.9666 16.4036 15.994 16.3893 16.0213 16.3724C16.0474 16.3568 16.1281 16.3112 16.1997 16.2734C16.4028 16.1654 16.895 15.8659 17.1138 15.7174C17.4796 15.47 17.6541 15.3372 17.7036 15.2682C17.7375 15.2227 17.7427 15.2031 17.7427 15.1315C17.7427 15.0807 17.7349 15.0325 17.7218 15.0065C17.7101 14.9831 17.6177 14.8802 17.5161 14.776C17.1841 14.4362 16.8716 14.0924 16.5656 13.7344C16.4523 13.6016 16.3325 13.4622 16.2987 13.4232C16.2661 13.3841 16.2127 13.319 16.1802 13.2786C16.1476 13.237 16.0513 13.1172 15.9653 13.0117C15.6919 12.6745 15.2987 12.1602 15.0018 11.7487C14.8885 11.5911 14.7505 11.401 14.6958 11.3255C14.6424 11.25 14.5656 11.1419 14.5265 11.0859C14.4888 11.0286 14.4106 10.9141 14.3533 10.832C14.2505 10.6797 13.8039 10.0078 13.7257 9.88671C13.7036 9.85025 13.658 9.77994 13.6255 9.73046C13.533 9.58593 13.4927 9.52343 13.4783 9.49999C13.4653 9.47916 13.3325 9.26432 13.2869 9.1927C13.2752 9.17317 13.257 9.14453 13.2479 9.1289C13.2388 9.11328 13.1359 8.9427 13.0213 8.7513C12.9054 8.55989 12.7961 8.3763 12.7778 8.34374C12.7596 8.31119 12.7101 8.22395 12.6658 8.14843L12.5864 8.01171V7.39973C12.5864 6.83333 12.5916 6.72656 12.6242 6.43619C12.6437 6.26432 12.6789 6.05078 12.7244 5.83723C12.7479 5.72135 12.7479 5.68749 12.7205 5.61979C12.6815 5.51692 12.5864 5.45312 12.4757 5.45312C12.3963 5.45312 12.3416 5.47786 12.2856 5.54036C12.2375 5.59374 12.2362 5.59635 12.1841 5.86328C12.175 5.90624 12.1632 5.98177 12.1554 6.03124C12.1489 6.08072 12.1385 6.14192 12.1307 6.16796C12.1242 6.194 12.1177 6.23828 12.1177 6.26692C12.1164 6.29557 12.1059 6.3802 12.0942 6.45572L12.0708 6.59244L9.87808 6.59635C8.67236 6.59765 7.68147 6.59505 7.67626 6.58984C7.66715 6.57942 7.64631 6.45312 7.62548 6.27994C7.61897 6.22916 7.60855 6.15624 7.60074 6.11718C7.59423 6.07812 7.57861 5.98958 7.56689 5.92187C7.55517 5.85416 7.53824 5.7565 7.52782 5.70703C7.51741 5.65624 7.49788 5.55468 7.48355 5.47916C7.46923 5.40364 7.43538 5.24218 7.41064 5.12109C7.34814 4.83203 7.34944 4.83854 7.29345 4.60677C7.28303 4.5677 7.26611 4.49739 7.25569 4.45052C7.24397 4.40364 7.2023 4.23177 7.16324 4.069C7.12418 3.90624 7.09163 3.76432 7.09163 3.7526C7.09163 3.74218 7.10986 3.69661 7.13199 3.65234C7.19319 3.53385 7.33251 3.39973 7.46012 3.33723C7.62418 3.25911 7.72704 3.23958 7.97965 3.23958C8.19319 3.23958 8.23876 3.24479 8.49788 3.30078C8.70881 3.34635 9.02913 3.44921 9.24006 3.54036C9.25829 3.54817 9.29085 3.56249 9.31168 3.57161C9.33381 3.58072 9.4497 3.63541 9.5721 3.69531C9.69319 3.7539 9.81428 3.80598 9.84032 3.80859C9.90543 3.8177 9.951 3.80078 10.2244 3.66666C10.3546 3.60416 10.4679 3.55208 10.4757 3.55208C10.4836 3.55208 10.5005 3.54687 10.5135 3.53906C10.589 3.49609 10.852 3.40494 11.0695 3.34505C11.1268 3.32942 11.2036 3.30729 11.2401 3.29687C11.2765 3.28645 11.3234 3.27864 11.3442 3.27864C11.3651 3.27734 11.4171 3.26953 11.4601 3.25911C11.5122 3.24609 11.6112 3.23958 11.7596 3.23958C12.0161 3.23958 12.119 3.25911 12.283 3.33723C12.4119 3.39973 12.5474 3.53124 12.6125 3.65885L12.6567 3.74479L12.6033 3.96484C12.5734 4.08463 12.5304 4.25911 12.5083 4.35286C12.4862 4.44531 12.4588 4.56119 12.4471 4.60937C12.4302 4.67968 12.4289 4.70572 12.4406 4.74609C12.4744 4.85546 12.533 4.91406 12.6424 4.94791C12.7101 4.96874 12.813 4.93619 12.8768 4.87369C12.9328 4.819 12.9562 4.74999 13.0539 4.33333C13.0747 4.24348 13.1138 4.08203 13.1398 3.97525C13.2049 3.71093 13.2023 3.67187 13.0955 3.45833C13.0461 3.35807 12.9875 3.26302 12.9393 3.20442C12.869 3.12239 12.7323 2.99218 12.6554 2.9388C12.632 2.92317 12.6242 2.89453 12.6059 2.76432C12.5799 2.57161 12.5148 2.28515 12.4731 2.17187C12.4549 2.12499 12.4354 2.069 12.4289 2.04817C12.4224 2.02604 12.3794 1.93229 12.3338 1.83723C12.2023 1.57161 12.0461 1.35677 11.8455 1.16536C11.7869 1.10937 11.7244 1.05729 11.7075 1.04947C11.6893 1.04166 11.675 1.02734 11.675 1.01692C11.675 1.0052 11.6515 0.999994 11.5864 0.999994C11.5135 0.999994 11.4966 1.0039 11.4823 1.02604C11.4731 1.04036 11.4575 1.05208 11.4484 1.05208C11.4302 1.05208 11.3586 1.13411 11.3273 1.1901C11.2296 1.36718 11.0604 1.73307 11.0239 1.84635C11.0174 1.86458 11.0005 1.91145 10.9849 1.95052C10.8898 2.194 10.8078 2.52473 10.783 2.75781C10.7778 2.80468 10.7687 2.85156 10.7622 2.86328C10.7518 2.88281 10.5656 2.96614 10.5317 2.96614C10.5174 2.96614 10.5018 2.97265 10.3599 3.03515C10.3208 3.05338 10.2752 3.07161 10.2596 3.07552C10.244 3.08072 10.1502 3.12239 10.0526 3.16796C9.85074 3.26171 9.89241 3.26171 9.68928 3.16796C9.52913 3.09374 9.5148 3.08854 9.40282 3.04427C9.34553 3.02083 9.28173 2.99479 9.2596 2.98567C9.18928 2.95572 9.11767 2.92838 9.05907 2.91275C8.98876 2.89192 8.97053 2.86458 8.96012 2.75781C8.94059 2.55859 8.84293 2.16796 8.75829 1.95052C8.74267 1.91145 8.72574 1.86458 8.71923 1.84635C8.70361 1.79557 8.58512 1.52604 8.52522 1.40364C8.40673 1.16015 8.35335 1.07812 8.29085 1.05208C8.26871 1.04296 8.25048 1.02734 8.25048 1.01822C8.25048 1.0039 8.22835 0.999994 8.15934 0.999994C8.09163 0.999994 8.06819 1.0039 8.06819 1.01692ZM8.1359 1.80338C8.27782 2.14843 8.31819 2.26171 8.38069 2.5039C8.41064 2.62239 8.42496 2.72656 8.41064 2.73567C8.40543 2.73958 8.31298 2.73307 8.20491 2.72265C8.02782 2.70572 7.83772 2.70703 7.74267 2.72525C7.67626 2.73958 7.67236 2.72135 7.7023 2.57552C7.73225 2.43619 7.81038 2.19791 7.84163 2.14973C7.85204 2.13411 7.85986 2.11588 7.85986 2.10937C7.85986 2.08984 7.97184 1.89322 8.02392 1.82161C8.07991 1.74218 8.10855 1.73697 8.1359 1.80338ZM11.7166 1.8164C11.7752 1.90104 11.7791 1.90885 11.8677 2.08723C11.9106 2.17317 11.9549 2.27604 11.9679 2.3151C12.0304 2.50911 12.0721 2.70442 12.0552 2.72135C12.0487 2.72786 11.9927 2.72525 11.9211 2.71614C11.8182 2.70312 11.757 2.70442 11.5695 2.72135C11.4445 2.73307 11.3377 2.73828 11.3312 2.73567C11.3013 2.71744 11.3963 2.33203 11.4888 2.09374C11.5448 1.95052 11.6138 1.78906 11.6268 1.77083C11.6489 1.74218 11.6737 1.7539 11.7166 1.8164ZM12.0408 7.13281C12.0643 7.14583 12.0656 7.16406 12.0656 7.47135C12.0656 7.77864 12.0643 7.79687 12.0408 7.80989C12.0057 7.82812 7.73746 7.82812 7.7023 7.80989C7.67887 7.79687 7.67756 7.77864 7.67756 7.47135C7.67756 7.17578 7.68017 7.14583 7.701 7.13411C7.73225 7.11458 12.0057 7.11458 12.0408 7.13281Z" fill="#111111"/>
</g>
<defs>
<clipPath id="clip0_132_607">
<rect width="20" height="20" fill="white"/>
</clipPath>
</defs>
</svg>
