<svg width="26" height="26" viewBox="0 0 26 26" fill="none" xmlns="http://www.w3.org/2000/svg">
<rect width="26" height="26" rx="13" fill="#292526"/>
<path d="M15.96 7.06667C14.7533 7.06667 13.6733 7.65333 13 8.55333C12.3267 7.65333 11.2467 7.06667 10.04 7.06667C7.99334 7.06667 6.33334 8.73333 6.33334 10.7933C6.33334 11.5867 6.46001 12.32 6.68001 13C7.73334 16.3333 10.98 18.3267 12.5867 18.8733C12.8133 18.9533 13.1867 18.9533 13.4133 18.8733C15.02 18.3267 18.2667 16.3333 19.32 13C19.54 12.32 19.6667 11.5867 19.6667 10.7933C19.6667 8.73333 18.0067 7.06667 15.96 7.06667Z" fill="white"/>
</svg>
