<svg width="40" height="40" viewBox="0 0 40 40" fill="none" xmlns="http://www.w3.org/2000/svg">
<g clip-path="url(#clip0_131_591)">
<path d="M40 20C40 8.9543 31.0457 0 20 0C8.9543 0 0 8.9543 0 20C0 31.0457 8.9543 40 20 40C31.0457 40 40 31.0457 40 20Z" fill="white" fill-opacity="0.05"/>
<path d="M21.8496 11.4042L21.85 11.4045L27.6099 15.4344C28.0387 15.7346 28.459 16.2388 28.7726 16.8396C29.0863 17.4404 29.26 18.0739 29.26 18.6V25.38C29.26 27.5158 27.5258 29.25 25.39 29.25H14.61C12.4763 29.25 10.74 27.5079 10.74 25.37V18.47C10.74 17.9833 10.8968 17.3822 11.1829 16.8013C11.4687 16.2208 11.8516 15.7253 12.2413 15.4214L12.2414 15.4212L17.2494 11.5129C17.2497 11.5126 17.25 11.5123 17.2504 11.5121C18.5006 10.5442 20.5492 10.4931 21.8496 11.4042ZM20 27.5C20.8242 27.5 21.5 26.8242 21.5 26V23C21.5 22.1758 20.8242 21.5 20 21.5C19.1758 21.5 18.5 22.1758 18.5 23V26C18.5 26.8242 19.1758 27.5 20 27.5Z" stroke="white" stroke-width="1.5"/>
</g>
<defs>
<clipPath id="clip0_131_591">
<rect width="40" height="40" fill="white"/>
</clipPath>
</defs>
</svg>
