<svg width="20" height="20" viewBox="0 0 20 20" fill="none" xmlns="http://www.w3.org/2000/svg">
<path d="M7.53332 1.01998C7.53332 1.03064 7.51333 1.04263 7.48402 1.04796C7.43073 1.05862 7.37077 1.07994 7.29349 1.11725C7.04168 1.23982 6.84982 1.48631 6.78321 1.77276C6.77521 1.81007 6.76722 2.22443 6.76189 2.85862L6.75389 3.88453L6.51407 3.89252C6.2476 3.90052 6.17832 3.91517 6.01844 3.99112C5.83724 4.07905 5.68136 4.26558 5.61607 4.47742C5.58942 4.56003 5.58809 4.59733 5.58809 5.33412C5.58809 6.16817 5.59076 6.13886 5.51481 6.20947C5.41355 6.30274 5.09912 6.70377 4.96056 6.91562C4.76337 7.21673 4.72473 7.28468 4.58217 7.57513C4.43694 7.87357 4.39564 7.9735 4.29438 8.28127C4.20911 8.54374 4.1798 8.64634 4.1305 8.86084C3.94264 9.68157 3.95863 10.7315 4.17181 11.5122C4.21844 11.6841 4.30504 11.9719 4.33036 12.0345C4.34101 12.0625 4.357 12.1078 4.36766 12.1344C4.43961 12.3289 4.64079 12.758 4.73539 12.9245C4.96189 13.3162 5.20038 13.6453 5.50549 13.9824L5.58809 14.0756V14.8551C5.58809 15.6025 5.58942 15.6398 5.61607 15.7224C5.69734 15.9836 5.87055 16.1634 6.13702 16.2647C6.18099 16.2807 6.25826 16.2873 6.46078 16.2913C6.68594 16.2967 6.72991 16.3007 6.74457 16.3193C6.75523 16.334 6.76056 16.3953 6.76056 16.5152C6.76056 16.6151 6.76722 16.711 6.77654 16.7363C6.82717 16.8869 6.99905 16.9642 7.13095 16.8962C7.19757 16.8616 7.23887 16.8203 7.26552 16.763C7.28417 16.7204 7.28683 16.6311 7.29083 16.0289C7.29349 15.6491 7.30016 15.3374 7.30682 15.3307C7.31348 15.3241 7.38543 15.348 7.48269 15.388C7.70253 15.4813 7.78113 15.5119 7.95967 15.5745C8.11955 15.6318 8.56589 15.7397 8.80571 15.7811C9.12414 15.8357 9.6251 15.873 9.88491 15.8597C10.1554 15.8463 10.4139 15.8277 10.4911 15.8157C10.5391 15.8077 10.635 15.7917 10.7043 15.7811C10.9974 15.7331 11.4264 15.6252 11.6543 15.5412C11.6809 15.5306 11.7262 15.5146 11.7542 15.5039C11.7808 15.4933 11.8914 15.448 11.9993 15.4027C12.1073 15.3574 12.2019 15.3241 12.2099 15.3294C12.2192 15.3347 12.2232 15.7837 12.2232 16.6671C12.2232 18.1366 12.2272 18.066 12.1379 18.2073C12.0859 18.2872 11.9887 18.3765 11.9114 18.4138C11.7688 18.483 11.8448 18.4804 9.75834 18.4804C7.66788 18.4804 7.74782 18.483 7.6026 18.4124C7.51733 18.3711 7.39875 18.2539 7.34945 18.1606C7.30815 18.0847 7.30415 18.0647 7.29349 17.9008C7.2815 17.7223 7.26552 17.657 7.21888 17.6077C7.08165 17.4571 6.8405 17.5118 6.77521 17.7063C6.74324 17.8049 6.76855 18.1193 6.82051 18.2672C6.94975 18.6296 7.25086 18.8921 7.63458 18.9787C7.71985 18.9973 7.94768 19 9.75967 19C11.6902 19 11.7955 18.9987 11.8901 18.9747C12.3098 18.8721 12.6056 18.5923 12.7175 18.1939C12.7468 18.0887 12.7468 18.0714 12.7521 17.208C12.7574 16.4113 12.7588 16.3273 12.7788 16.3113C12.7948 16.3007 12.8654 16.2953 13.0173 16.2953C13.2704 16.2953 13.3437 16.2833 13.4689 16.2234C13.5875 16.1674 13.6834 16.0915 13.7594 15.9929C13.8287 15.9023 13.8486 15.8637 13.8913 15.7491C13.9219 15.6625 13.9219 15.6585 13.9286 14.8617L13.9352 14.061L14.0152 13.9744C14.1044 13.8798 14.291 13.656 14.3842 13.5307C14.4602 13.4281 14.6214 13.1923 14.6214 13.1816C14.6214 13.1763 14.6294 13.163 14.6401 13.1523C14.7013 13.083 14.9385 12.6314 15.0398 12.3942C15.2396 11.9226 15.3502 11.5548 15.4341 11.0739C15.4435 11.0272 15.4554 10.9753 15.4621 10.958L15.4741 10.926H15.7246C15.9431 10.926 15.9844 10.922 16.0537 10.898C16.1723 10.8567 16.2309 10.8234 16.3042 10.7554C16.4161 10.6502 16.4787 10.5449 16.5147 10.4064C16.5413 10.3038 16.5413 9.71088 16.5147 9.60696C16.484 9.48838 16.4334 9.39511 16.3481 9.30451C16.2589 9.20859 16.1949 9.16595 16.0657 9.11932C15.9831 9.09001 15.9577 9.08734 15.7139 9.08734C15.5194 9.08734 15.4475 9.08335 15.4368 9.07002C15.4301 9.06203 15.4048 8.96743 15.3822 8.86084C15.2956 8.47047 15.2063 8.19467 15.0424 7.81229C14.8093 7.26602 14.4615 6.72243 14.0578 6.27343L13.9352 6.13619L13.9286 5.33679C13.9219 4.54138 13.9219 4.53738 13.8913 4.45078C13.85 4.33619 13.8287 4.29756 13.7594 4.20829C13.5888 3.98579 13.3557 3.89252 12.9666 3.89119H12.7588L12.7535 3.62072C12.7481 3.32228 12.7441 3.30363 12.6575 3.22768C12.5749 3.15574 12.4657 3.14374 12.3631 3.19437C12.3164 3.21836 12.2858 3.25166 12.2498 3.32095C12.2245 3.36891 12.2232 3.40089 12.2232 4.11769C12.2232 4.74789 12.2205 4.86514 12.2045 4.8718C12.1872 4.87846 12.1566 4.86647 11.99 4.79052C11.8115 4.70792 11.5157 4.60933 11.1506 4.51073C10.5258 4.34286 9.73169 4.29889 8.98557 4.39215C8.69512 4.42813 8.49127 4.47343 8.08624 4.59067C7.88639 4.6493 7.63458 4.7399 7.51333 4.79719C7.39342 4.85448 7.32814 4.87846 7.31082 4.8718C7.29616 4.86514 7.29349 4.60933 7.29616 3.35559C7.30016 1.87668 7.30016 1.84471 7.3268 1.79941C7.3761 1.7128 7.43872 1.64219 7.49868 1.60755C7.63324 1.52894 7.52399 1.53161 9.79298 1.53693C11.7342 1.5396 11.8741 1.54093 11.9274 1.56358C12.0313 1.60488 12.0899 1.65018 12.1419 1.72613C12.2099 1.82472 12.2232 1.89001 12.2232 2.1285C12.2232 2.31503 12.2272 2.355 12.2485 2.40296C12.2951 2.50422 12.3804 2.55884 12.4923 2.55884C12.5816 2.55884 12.6535 2.51887 12.7095 2.4416L12.7495 2.38297V2.10851C12.7481 1.75677 12.7228 1.65152 12.5909 1.44101C12.4803 1.26647 12.2218 1.08527 12.0273 1.04663C12.002 1.0413 11.9834 1.02931 11.9834 1.01865C11.9834 1.00266 11.6716 0.999999 9.75834 0.999999C7.81977 0.999999 7.53332 1.00266 7.53332 1.01998ZM6.75389 4.45477C6.75789 4.47076 6.76056 4.64263 6.75789 4.83582C6.75389 5.16092 6.75256 5.1889 6.72991 5.20222C6.71526 5.21021 6.6593 5.24619 6.60467 5.28349C6.55005 5.31947 6.49409 5.35544 6.48343 5.36343C6.44346 5.38742 6.24894 5.53397 6.20364 5.57261C6.17965 5.5926 6.14768 5.60992 6.13435 5.60992C6.10771 5.60992 6.10771 5.59793 6.10771 5.1396C6.10771 4.60133 6.1117 4.57468 6.20763 4.49741C6.28624 4.43346 6.32088 4.42679 6.54338 4.42546C6.74324 4.42413 6.74723 4.42413 6.75389 4.45477ZM13.2104 4.44012C13.2811 4.4641 13.3384 4.51473 13.3717 4.58135C13.401 4.64263 13.4023 4.65463 13.4063 5.12095C13.4103 5.53397 13.4076 5.59793 13.3903 5.60459C13.3783 5.60859 13.3104 5.56728 13.2131 5.494C13.1265 5.42872 12.9933 5.33412 12.916 5.28349C12.8387 5.23286 12.7721 5.18623 12.7668 5.17824C12.7535 5.15958 12.7535 4.44545 12.7654 4.43346C12.7801 4.41747 13.1625 4.4228 13.2104 4.44012ZM10.1114 4.88379C10.3672 4.89578 10.7629 4.9544 10.9828 5.01303C11.0387 5.02768 11.1053 5.04367 11.1307 5.05033C11.4784 5.13694 12.0127 5.3581 12.3298 5.54597C12.3844 5.57794 12.439 5.60859 12.4497 5.61392C12.4843 5.63124 12.519 5.65389 12.6695 5.75514C13.0626 6.02028 13.3557 6.28009 13.7154 6.68379C13.9059 6.89563 14.1444 7.23138 14.3056 7.51384C14.3709 7.62842 14.5814 8.05611 14.5814 8.07609C14.5814 8.08409 14.5894 8.10674 14.6001 8.12539C14.6107 8.14537 14.6294 8.18801 14.6414 8.22132C14.6547 8.25463 14.6694 8.29326 14.676 8.30792C14.7013 8.36388 14.7706 8.59437 14.8133 8.76092C14.8879 9.05403 14.9039 9.13131 14.9545 9.47372C14.9931 9.72554 14.9931 10.5516 14.9545 10.7061C14.9478 10.7355 14.9412 10.7861 14.9412 10.8194C14.9412 10.8527 14.9318 10.9127 14.9212 10.9526C14.9105 10.9926 14.9012 11.0432 14.9012 11.0645C14.9012 11.0859 14.8919 11.1338 14.8812 11.1711C14.8705 11.2084 14.8412 11.323 14.8159 11.4256C14.772 11.6001 14.7027 11.832 14.676 11.8919C14.6694 11.9066 14.6547 11.9452 14.6414 11.9785C14.6294 12.0118 14.6107 12.0558 14.6014 12.0785C14.5908 12.0998 14.5668 12.1571 14.5455 12.205C14.5095 12.289 14.3403 12.6314 14.315 12.6714C14.3083 12.682 14.263 12.7566 14.2137 12.8379C14.1298 12.9738 13.9859 13.1896 13.9686 13.2043C13.9646 13.2083 13.9166 13.2682 13.8633 13.3375C13.5089 13.7999 12.964 14.2808 12.4563 14.5806C12.3977 14.6152 12.3404 14.6499 12.3298 14.6566C12.2805 14.6885 11.8861 14.8817 11.7902 14.9217C11.7315 14.9457 11.6663 14.975 11.6436 14.9843C11.605 15.0016 11.2785 15.1082 11.1573 15.1415C10.9175 15.2095 10.7403 15.2468 10.4045 15.2961C10.1087 15.34 9.42392 15.34 9.11881 15.2961C8.77107 15.2468 8.61651 15.2135 8.27543 15.1162C8.12488 15.0722 8.04494 15.0456 7.83576 14.9683C7.66522 14.9044 7.28683 14.7178 7.08698 14.5979C6.96174 14.5233 6.92177 14.4967 6.69927 14.3434C6.48743 14.1982 6.10504 13.8598 5.92784 13.6626C5.62806 13.3282 5.37625 12.9871 5.22836 12.718C5.20438 12.674 5.18039 12.6314 5.17506 12.6247C5.16041 12.6047 5.02184 12.3303 4.97788 12.2317C4.90193 12.0625 4.77403 11.7241 4.74871 11.6188C4.74205 11.5935 4.7274 11.5389 4.71407 11.4989C4.66344 11.3297 4.60082 11.0179 4.57018 10.7794C4.49024 10.1492 4.52355 9.51636 4.6701 8.86751C4.67677 8.83819 4.69409 8.77158 4.71007 8.72095C4.72473 8.66899 4.74205 8.60637 4.74871 8.58105C4.77003 8.49312 4.91259 8.11206 4.97521 7.97483C5.05515 7.7963 5.19238 7.53782 5.30164 7.35662C5.68002 6.73175 6.32221 6.07757 6.92976 5.69919C6.99105 5.66055 7.05767 5.61924 7.07765 5.60725C7.12562 5.57661 7.15893 5.55929 7.30016 5.48335C7.48136 5.38742 7.48935 5.38475 7.6932 5.29149C7.82377 5.23286 8.10889 5.13027 8.26611 5.08364C8.29942 5.07431 8.36204 5.05566 8.406 5.04367C8.44997 5.03035 8.50993 5.01569 8.53924 5.01036C8.56855 5.0037 8.64982 4.98771 8.71911 4.97306C8.93228 4.92776 9.23339 4.89045 9.47854 4.87846C9.70371 4.8678 9.77033 4.8678 10.1114 4.88379ZM15.9404 9.64027C15.999 9.69223 16.007 9.7362 16.007 10.0093C16.007 10.2278 16.003 10.2731 15.9831 10.3131C15.9458 10.389 15.8938 10.4064 15.7073 10.4064C15.6193 10.4064 15.5407 10.401 15.5327 10.3957C15.5167 10.385 15.4968 9.62827 15.5127 9.61362C15.5167 9.60829 15.6087 9.60696 15.7153 9.60962C15.8885 9.61362 15.9151 9.61628 15.9404 9.64027ZM6.28358 14.6939C6.44479 14.8138 6.66463 14.963 6.67795 14.963C6.68328 14.963 6.7046 14.9776 6.72458 14.9963L6.76056 15.0309V15.388C6.76056 15.6891 6.75789 15.7491 6.74057 15.7624C6.72592 15.7744 6.66463 15.7771 6.51008 15.7731C6.30356 15.7677 6.29956 15.7677 6.24094 15.7291C6.19964 15.7011 6.16899 15.6665 6.14501 15.6172L6.10771 15.5439V15.0762C6.10771 14.8191 6.1117 14.6033 6.11703 14.5979C6.13169 14.5846 6.14901 14.5939 6.28358 14.6939ZM13.4036 14.6219C13.4076 14.6379 13.409 14.8564 13.4063 15.1042L13.4023 15.5572L13.3677 15.6225C13.3463 15.6651 13.313 15.7038 13.2771 15.7278C13.2224 15.7637 13.2104 15.7664 13.0359 15.7731C12.9346 15.7757 12.8307 15.7757 12.8041 15.7704L12.7561 15.7611V15.392V15.0229L12.96 14.887C13.0705 14.8111 13.2078 14.7138 13.2624 14.6712C13.317 14.6272 13.3703 14.5913 13.3783 14.5913C13.3876 14.5899 13.3983 14.6046 13.4036 14.6219Z" fill="white"/>
<path d="M9.37864 5.41007C8.9816 5.43805 8.47531 5.54996 8.12624 5.68719C8.09026 5.70185 8.01832 5.72983 7.96635 5.74848C7.88775 5.77913 7.53334 5.951 7.44674 6.0003C7.32017 6.07358 7.27487 6.10155 7.19359 6.15485C6.50077 6.60785 5.93319 7.24071 5.5588 7.97483C5.46554 8.1587 5.40026 8.31591 5.28834 8.62102C5.21772 8.81554 5.14977 9.11399 5.08715 9.50703C5.05251 9.71754 5.05251 10.481 5.08582 10.6862C5.14045 11.0179 5.1551 11.0899 5.2044 11.2791C5.28434 11.5895 5.29367 11.6148 5.4349 11.9585C5.59744 12.3529 5.89056 12.8206 6.193 13.171C6.59937 13.6413 7.1403 14.0583 7.68656 14.3221C7.78249 14.3688 7.87043 14.4114 7.88242 14.4181C8.01832 14.4873 8.51928 14.6499 8.7591 14.7005C9.12683 14.7791 9.30403 14.7964 9.76502 14.7964C10.1661 14.7964 10.3619 14.7818 10.5844 14.7365C10.7776 14.6979 10.8629 14.6779 10.9108 14.6619C10.9415 14.6512 10.9735 14.6432 10.9841 14.6432C11.0094 14.6432 11.2399 14.5686 11.4371 14.4967C11.5211 14.466 11.6836 14.3954 11.7969 14.3395C11.9994 14.2409 12.2925 14.0743 12.3005 14.0543C12.3031 14.049 12.3111 14.0437 12.3165 14.0437C12.3351 14.0437 12.551 13.8905 12.6882 13.7785C13.2584 13.3189 13.6795 12.7899 14.0006 12.1318C14.1031 11.9199 14.1245 11.8693 14.1977 11.6521C14.327 11.2737 14.3883 11.0099 14.4376 10.6262C14.4602 10.4477 14.4602 9.75218 14.4376 9.57365C14.3829 9.15529 14.307 8.84219 14.1618 8.44116C14.0432 8.11207 13.7301 7.53116 13.6075 7.41125C13.5849 7.38993 13.5356 7.36195 13.4969 7.34996C13.433 7.32998 13.4236 7.32998 13.357 7.34996C13.1772 7.40859 13.1185 7.60311 13.2291 7.77498C13.341 7.94552 13.4463 8.13205 13.5422 8.32791C13.5729 8.38919 13.6315 8.53975 13.7221 8.7809C13.7314 8.80622 13.7487 8.86084 13.7607 8.90081C13.7714 8.94079 13.79 9.00341 13.802 9.04071C13.838 9.16195 13.8873 9.44308 13.91 9.64959C13.9739 10.2358 13.898 10.946 13.7208 11.4189C13.7114 11.4443 13.6821 11.5255 13.6555 11.5988C13.6008 11.7507 13.4543 12.0558 13.3637 12.2104C12.8174 13.1297 11.9527 13.8078 10.9508 14.1036C10.9068 14.117 10.8562 14.1316 10.8376 14.1383C10.6337 14.2049 10.0475 14.2835 9.76103 14.2835C9.53319 14.2835 9.02291 14.2249 8.84037 14.1782C8.81373 14.1716 8.75111 14.1556 8.69915 14.1436C8.64852 14.1303 8.56458 14.1063 8.51262 14.0876C8.46199 14.0703 8.40203 14.0503 8.37938 14.045C8.35806 14.0383 8.32209 14.0264 8.29944 14.017C8.27812 14.0077 8.24748 13.9957 8.23282 13.989C8.03564 13.9078 7.93704 13.8638 7.85311 13.8198C7.71321 13.7466 7.41343 13.5667 7.37346 13.5321C7.35481 13.5161 7.3135 13.4854 7.28153 13.4641C7.05769 13.3135 6.66865 12.9365 6.46747 12.6714C6.44215 12.638 6.41817 12.6087 6.41284 12.6047C6.39818 12.5927 6.23297 12.3463 6.17168 12.245C6.08775 12.1051 5.99049 11.9106 5.89456 11.6921C5.76932 11.4056 5.66672 11.0166 5.6081 10.6062C5.57746 10.3917 5.57746 9.80814 5.6081 9.59363C5.67472 9.12731 5.77065 8.7849 5.94385 8.39452C6.4608 7.23538 7.52135 6.34671 8.73645 6.05226C9.15214 5.951 9.33601 5.92968 9.76502 5.92968C10.186 5.92968 10.3592 5.94967 10.7776 6.05226C10.9521 6.09356 11.0574 6.12554 11.1706 6.1695C11.2106 6.18549 11.2586 6.20281 11.2772 6.20814C11.3505 6.23212 11.7302 6.41466 11.8302 6.47461C11.8675 6.49726 11.9088 6.52124 11.9234 6.52924C12.0167 6.57853 12.2205 6.72243 12.4031 6.86899C12.5736 7.00489 12.6296 7.0302 12.7228 7.01688C12.7961 7.00489 12.8534 6.96758 12.9027 6.90096C12.9373 6.853 12.9427 6.83301 12.9427 6.76373C12.9427 6.63449 12.8827 6.56521 12.5763 6.33472C12.4617 6.24945 12.1646 6.04959 12.1526 6.04959C12.1473 6.04959 12.0993 6.02295 12.0447 5.99097C11.9261 5.92036 11.6676 5.79512 11.545 5.74715C11.4971 5.7285 11.4278 5.70185 11.3905 5.68719C11.3545 5.67387 11.2879 5.64989 11.2439 5.63657C11.2 5.62191 11.1373 5.60059 11.104 5.58993C10.9468 5.53797 10.659 5.47802 10.3313 5.43005C10.1674 5.40607 9.59981 5.39408 9.37864 5.41007Z" fill="white"/>
<path d="M7.93973 8.45708C7.89176 8.46774 7.80782 8.53436 7.77585 8.58765C7.73454 8.66093 7.73854 8.79416 7.78517 8.85812C7.81582 8.90208 7.94772 9.01 8.62588 9.54294C8.85904 9.72681 8.87237 9.74146 8.85105 9.78143C8.83106 9.82007 8.7871 10.0372 8.7871 10.0999C8.7871 10.1558 8.82973 10.3677 8.85371 10.4329C8.9603 10.7127 9.18147 10.9233 9.47192 11.0205C9.55186 11.0472 9.59183 11.0525 9.75172 11.0525C9.94491 11.0525 10.0209 11.0392 10.1554 10.9765C10.3566 10.8859 10.5445 10.6981 10.6351 10.4969C10.695 10.3677 10.7083 10.297 10.7123 10.1065C10.715 9.94531 10.719 9.91866 10.7403 9.90401C10.7536 9.89335 10.9375 9.79875 11.1507 9.69083C11.3625 9.58424 11.6157 9.45634 11.7103 9.40704C11.8062 9.35775 11.9701 9.27381 12.0767 9.22185C12.1832 9.16855 12.2792 9.12059 12.2898 9.11393C12.3005 9.10726 12.3764 9.06996 12.4577 9.02999C12.6855 8.91807 12.7468 8.85012 12.7468 8.71422C12.7468 8.62762 12.7228 8.57433 12.6576 8.51703C12.5736 8.44376 12.4657 8.4331 12.3565 8.48639C12.3311 8.49971 12.0767 8.62895 11.7902 8.77418C10.6724 9.34176 10.4872 9.43369 10.4699 9.43369C10.4592 9.43369 10.4259 9.41104 10.3939 9.38306C10.1861 9.19387 9.89295 9.10593 9.61848 9.1499C9.48924 9.16988 9.43995 9.18587 9.30272 9.25515C9.25342 9.28047 9.20279 9.30045 9.18947 9.30045C9.17614 9.30045 9.09354 9.24183 9.00427 9.16988C8.91633 9.09927 8.78976 8.99934 8.72448 8.94738C8.65919 8.89675 8.50464 8.77418 8.3794 8.67558C8.09961 8.45575 8.05431 8.4331 7.93973 8.45708ZM9.85164 9.67884C9.94757 9.70282 9.99287 9.72814 10.0608 9.79476C10.1408 9.87336 10.1754 9.9533 10.1821 10.0759C10.1887 10.2131 10.1621 10.2917 10.0768 10.3863C9.98221 10.4889 9.89694 10.5262 9.75971 10.5262C9.67577 10.5262 9.63713 10.5196 9.57984 10.4942C9.50656 10.4623 9.38532 10.353 9.38532 10.3197C9.38532 10.3104 9.37733 10.2957 9.368 10.2877C9.35734 10.2797 9.34135 10.2304 9.33203 10.1785C9.31737 10.1012 9.31737 10.0732 9.33203 10.0159C9.37733 9.83473 9.48525 9.72414 9.65845 9.68017C9.74639 9.65752 9.76504 9.65752 9.85164 9.67884Z" fill="white"/>
</svg>
